<?xml version="1.0" encoding="utf-8"?>
<!-- Generator: Adobe Illustrator 24.1.0, SVG Export Plug-In . SVG Version: 6.00 Build 0)  -->
<svg version="1.1" xmlns="http://www.w3.org/2000/svg" xmlns:xlink="http://www.w3.org/1999/xlink" x="0px" y="0px"
	 viewBox="0 0 982.3 1169.2" style="enable-background:new 0 0 982.3 1169.2;" xml:space="preserve">
<style type="text/css">
	.st0{fill:url(#SVGID_1_);}
	.st1{fill:#FFFFFF;}
	.st2{fill:url(#SVGID_2_);}
	.st3{fill:none;stroke:#FFFFFF;stroke-width:16;stroke-miterlimit:10;}
	.st4{fill:url(#SVGID_3_);}
	.st5{fill:none;stroke:#FFFFFF;stroke-width:16;stroke-miterlimit:10;stroke-dasharray:59.6403,29.8201;}
	.st6{fill:url(#SVGID_4_);}
	.st7{fill:none;stroke:#FFFFFF;stroke-width:16;stroke-miterlimit:10;stroke-dasharray:60,30;}
	.st8{fill:url(#SVGID_5_);}
	.st9{display:none;}
	.st10{display:inline;}
</style>
<g id="Layer_1">
	<g>
		<path class="st1" d="M839.6,1062.3l-22.4-22.4l-22.4,22.4c-3.1,3.1-8.1,3.1-11.2,0c-3.1-3.1-3.1-8.1,0-11.2l22.4-22.4l-22.4-22.4
			c-3.1-3.1-3.1-8.1,0-11.2c3.1-3.1,8.1-3.1,11.2,0l22.4,22.4l22.4-22.4c3.1-3.1,8.1-3.1,11.2,0c3.1,3.1,3.1,8.1,0,11.2l-22.4,22.4
			l22.4,22.4c3.1,3.1,3.1,8.1,0,11.2C847.7,1065.4,842.7,1065.4,839.6,1062.3z"/>
		<linearGradient id="SVGID_1_" gradientUnits="userSpaceOnUse" x1="248.6397" y1="373.3132" x2="803.4426" y2="905.6674">
			<stop  offset="0" style="stop-color:#4384f4"/>
			<stop  offset="1" style="stop-color:#ea4235"/>
		</linearGradient>
		<path class="st0" d="M143.8,553.5c0,0-323.6,293.6,0,489.9s507.8,173.9,494.4-212.6c-13.5-386.5,355.2-130.3,343.9-373
			c-11.3-242.7-442.8-755-631.5-143.8C350.5,313.9,283.1,429,143.8,553.5z"/>
		<path class="st3" d="M118.1,661.1c0,0-218.9,378.1,149.1,466.7s536.7,11.1,406.2-353s298.7-232.3,214.1-460
			s-651.5-584.4-645.3,55.2C242.1,370.1,212.9,500.1,118.1,661.1z"/>
	</g>
</g>
<g id="Layer_2" class="st9">
	<g class="st10">
		<circle cx="527.4" cy="615.8" r="427.5"/>
	</g>
</g>
</svg>
